<svg width="100" height="100" viewBox="0 0 100 100" fill="none" xmlns="http://www.w3.org/2000/svg">
<rect width="100" height="100" rx="14" fill="#172030"/>
<g filter="url(#filter0_d_412_381)">
<mask id="path-2-outside-1_412_381" maskUnits="userSpaceOnUse" x="20" y="31" width="61" height="39" fill="black">
<rect fill="white" x="20" y="31" width="61" height="39"/>
<path d="M21.3438 69V32.6364H46.9119V40.5909H31.2159V46.8409H45.3494V54.7955H31.2159V69H21.3438ZM50.543 69V32.6364H66.239C68.9379 32.6364 71.2994 33.169 73.3235 34.2344C75.3477 35.2997 76.922 36.7971 78.0465 38.7266C79.171 40.656 79.7333 42.911 79.7333 45.4915C79.7333 48.0956 79.1533 50.3506 77.9933 52.2564C76.8451 54.1622 75.2293 55.63 73.146 56.6598C71.0745 57.6896 68.6538 58.2045 65.8839 58.2045H56.5089V50.5341H63.8952C65.0553 50.5341 66.0437 50.3329 66.8604 49.9304C67.689 49.5161 68.3223 48.9302 68.7603 48.1726C69.2101 47.415 69.435 46.5213 69.435 45.4915C69.435 44.4498 69.2101 43.562 68.7603 42.8281C68.3223 42.0824 67.689 41.5142 66.8604 41.1236C66.0437 40.7211 65.0553 40.5199 63.8952 40.5199H60.4151V69H50.543Z"/>
</mask>
<path d="M21.3438 69V32.6364H46.9119V40.5909H31.2159V46.8409H45.3494V54.7955H31.2159V69H21.3438ZM50.543 69V32.6364H66.239C68.9379 32.6364 71.2994 33.169 73.3235 34.2344C75.3477 35.2997 76.922 36.7971 78.0465 38.7266C79.171 40.656 79.7333 42.911 79.7333 45.4915C79.7333 48.0956 79.1533 50.3506 77.9933 52.2564C76.8451 54.1622 75.2293 55.63 73.146 56.6598C71.0745 57.6896 68.6538 58.2045 65.8839 58.2045H56.5089V50.5341H63.8952C65.0553 50.5341 66.0437 50.3329 66.8604 49.9304C67.689 49.5161 68.3223 48.9302 68.7603 48.1726C69.2101 47.415 69.435 46.5213 69.435 45.4915C69.435 44.4498 69.2101 43.562 68.7603 42.8281C68.3223 42.0824 67.689 41.5142 66.8604 41.1236C66.0437 40.7211 65.0553 40.5199 63.8952 40.5199H60.4151V69H50.543Z" fill="white" shape-rendering="crispEdges"/>
<path d="M21.3438 69H20.3438V70H21.3438V69ZM21.3438 32.6364V31.6364H20.3438V32.6364H21.3438ZM46.9119 32.6364H47.9119V31.6364H46.9119V32.6364ZM46.9119 40.5909V41.5909H47.9119V40.5909H46.9119ZM31.2159 40.5909V39.5909H30.2159V40.5909H31.2159ZM31.2159 46.8409H30.2159V47.8409H31.2159V46.8409ZM45.3494 46.8409H46.3494V45.8409H45.3494V46.8409ZM45.3494 54.7955V55.7955H46.3494V54.7955H45.3494ZM31.2159 54.7955V53.7955H30.2159V54.7955H31.2159ZM31.2159 69V70H32.2159V69H31.2159ZM22.3438 69V32.6364H20.3438V69H22.3438ZM21.3438 33.6364H46.9119V31.6364H21.3438V33.6364ZM45.9119 32.6364V40.5909H47.9119V32.6364H45.9119ZM46.9119 39.5909H31.2159V41.5909H46.9119V39.5909ZM30.2159 40.5909V46.8409H32.2159V40.5909H30.2159ZM31.2159 47.8409H45.3494V45.8409H31.2159V47.8409ZM44.3494 46.8409V54.7955H46.3494V46.8409H44.3494ZM45.3494 53.7955H31.2159V55.7955H45.3494V53.7955ZM30.2159 54.7955V69H32.2159V54.7955H30.2159ZM31.2159 68H21.3438V70H31.2159V68ZM50.543 69H49.543V70H50.543V69ZM50.543 32.6364V31.6364H49.543V32.6364H50.543ZM73.3235 34.2344L72.8578 35.1193L72.8578 35.1193L73.3235 34.2344ZM78.0465 38.7266L78.9105 38.223L78.9105 38.223L78.0465 38.7266ZM77.9933 52.2564L77.139 51.7364L77.1367 51.7403L77.9933 52.2564ZM73.146 56.6598L72.7028 55.7633L72.7008 55.7644L73.146 56.6598ZM56.5089 58.2045H55.5089V59.2045H56.5089V58.2045ZM56.5089 50.5341V49.5341H55.5089V50.5341H56.5089ZM66.8604 49.9304L67.3025 50.8274L67.3077 50.8248L66.8604 49.9304ZM68.7603 48.1726L67.9004 47.662L67.8946 47.6721L68.7603 48.1726ZM68.7603 42.8281L67.898 43.3345L67.9028 43.3427L67.9077 43.3507L68.7603 42.8281ZM66.8604 41.1236L66.4184 42.0206L66.4262 42.0244L66.434 42.0281L66.8604 41.1236ZM60.4151 40.5199V39.5199H59.4151V40.5199H60.4151ZM60.4151 69V70H61.4151V69H60.4151ZM51.543 69V32.6364H49.543V69H51.543ZM50.543 33.6364H66.239V31.6364H50.543V33.6364ZM66.239 33.6364C68.8047 33.6364 71.001 34.142 72.8578 35.1193L73.7893 33.3495C71.5977 32.196 69.071 31.6364 66.239 31.6364V33.6364ZM72.8578 35.1193C74.7203 36.0996 76.1548 37.4667 77.1826 39.2301L78.9105 38.223C77.6892 36.1275 75.975 34.4999 73.7893 33.3495L72.8578 35.1193ZM77.1826 39.2301C78.2049 40.9843 78.7333 43.06 78.7333 45.4915H80.7333C80.7333 42.7619 80.1372 40.3277 78.9105 38.223L77.1826 39.2301ZM78.7333 45.4915C78.7333 47.9433 78.1888 50.0119 77.1391 51.7364L78.8475 52.7763C80.1178 50.6893 80.7333 48.2479 80.7333 45.4915H78.7333ZM77.1367 51.7403C76.0916 53.4749 74.6228 54.8142 72.7028 55.7633L73.5891 57.5563C75.8357 56.4457 77.5985 54.8494 78.8498 52.7725L77.1367 51.7403ZM72.7008 55.7644C70.7923 56.7131 68.5295 57.2045 65.8839 57.2045V59.2045C68.7781 59.2045 71.3566 58.6661 73.5911 57.5552L72.7008 55.7644ZM65.8839 57.2045H56.5089V59.2045H65.8839V57.2045ZM57.5089 58.2045V50.5341H55.5089V58.2045H57.5089ZM56.5089 51.5341H63.8952V49.5341H56.5089V51.5341ZM63.8952 51.5341C65.1678 51.5341 66.3158 51.3136 67.3024 50.8274L66.4184 49.0334C65.7716 49.3521 64.9427 49.5341 63.8952 49.5341V51.5341ZM67.3077 50.8248C68.3005 50.3284 69.0842 49.6103 69.626 48.6731L67.8946 47.6721C67.5604 48.2501 67.0776 48.7038 66.4132 49.036L67.3077 50.8248ZM69.6202 48.6831C70.1762 47.7466 70.435 46.6703 70.435 45.4915H68.435C68.435 46.3723 68.244 47.0834 67.9004 47.662L69.6202 48.6831ZM70.435 45.4915C70.435 44.3043 70.1776 43.2269 69.6129 42.3056L67.9077 43.3507C68.2426 43.8972 68.435 44.5953 68.435 45.4915H70.435ZM69.6226 42.3217C69.0765 41.3919 68.2861 40.6901 67.2869 40.2191L66.434 42.0281C67.092 42.3383 67.5681 42.7729 67.898 43.3345L69.6226 42.3217ZM67.3024 40.2266C66.3158 39.7404 65.1678 39.5199 63.8952 39.5199V41.5199C64.9427 41.5199 65.7716 41.7018 66.4184 42.0206L67.3024 40.2266ZM63.8952 39.5199H60.4151V41.5199H63.8952V39.5199ZM59.4151 40.5199V69H61.4151V40.5199H59.4151ZM60.4151 68H50.543V70H60.4151V68Z" fill="black" fill-opacity="0.56" mask="url(#path-2-outside-1_412_381)"/>
</g>
<defs>
<filter id="filter0_d_412_381" x="20.3438" y="31.6364" width="62.3895" height="40.3636" filterUnits="userSpaceOnUse" color-interpolation-filters="sRGB">
<feFlood flood-opacity="0" result="BackgroundImageFix"/>
<feColorMatrix in="SourceAlpha" type="matrix" values="0 0 0 0 0 0 0 0 0 0 0 0 0 0 0 0 0 0 127 0" result="hardAlpha"/>
<feOffset dx="1" dy="1"/>
<feGaussianBlur stdDeviation="0.5"/>
<feComposite in2="hardAlpha" operator="out"/>
<feColorMatrix type="matrix" values="0 0 0 0 1 0 0 0 0 1 0 0 0 0 1 0 0 0 0.1 0"/>
<feBlend mode="normal" in2="BackgroundImageFix" result="effect1_dropShadow_412_381"/>
<feBlend mode="normal" in="SourceGraphic" in2="effect1_dropShadow_412_381" result="shape"/>
</filter>
</defs>
</svg>
